<svg width="28" height="29" viewBox="0 0 28 29" fill="none" xmlns="http://www.w3.org/2000/svg">
<path d="M25.2782 5.20764H2.89421C1.94326 5.20764 1.17236 5.99261 1.17236 6.9609V26.2467C1.17236 27.2151 1.94326 28 2.89421 28H25.2782C26.2291 28 27 27.2151 27 26.2467V6.9609C27 5.99261 26.2291 5.20764 25.2782 5.20764Z" stroke="#3E3E3E" stroke-linejoin="round"/>
<path d="M1 12.2207H26.8276" stroke="#3E3E3E" stroke-linejoin="round"/>
<path d="M8.05957 7.1364V1" stroke="#3E3E3E" stroke-linecap="round" stroke-linejoin="round"/>
<path d="M20.1128 7.83753V1.70113" stroke="#3E3E3E" stroke-linecap="round" stroke-linejoin="round"/>
<path d="M13.6246 23.0023C13.6246 22.2979 13.5648 21.6454 13.4451 21.0447C13.3282 20.441 13.171 19.8769 12.9734 19.3525C12.7787 18.828 12.5556 18.334 12.3041 17.8705C12.0555 17.4071 11.801 16.9619 11.5405 16.5351L12.4882 15.9176C12.7128 16.2957 12.915 16.6661 13.0947 17.029C13.2743 17.3888 13.4346 17.7471 13.5753 18.1038C13.719 18.4606 13.8448 18.8189 13.9526 19.1786C14.0634 19.5385 14.1622 19.9059 14.2491 20.2809C14.3569 19.8571 14.4766 19.4272 14.6084 18.9911C14.7432 18.552 14.8809 18.1359 15.0217 17.7425C15.1654 17.3461 15.3076 16.9864 15.4483 16.6631C15.5891 16.3399 15.7208 16.0807 15.8436 15.8856L16.7869 16.503C16.6851 16.6708 16.5803 16.8643 16.4725 17.0839C16.3676 17.3004 16.2614 17.5351 16.1535 17.7882C16.0457 18.0413 15.9365 18.3096 15.8257 18.5932C15.7179 18.8768 15.6116 19.1679 15.5067 19.4668C15.2642 20.159 15.08 20.8008 14.9543 21.3923C14.8285 21.9838 14.7626 22.5205 14.7566 23.0023H13.6246Z" fill="#DF443D"/>
</svg>
