<svg width="30" height="30" viewBox="0 0 30 30" fill="none" xmlns="http://www.w3.org/2000/svg">
<path d="M16.3294 15.5205C16.1557 15.6965 15.9488 15.8364 15.7206 15.9318C15.4925 16.0272 15.2476 16.0764 15.0003 16.0764C14.753 16.0764 14.5081 16.0272 14.28 15.9318C14.0518 15.8364 13.8449 15.6965 13.6713 15.5205L7.04582 8.80074C6.35183 8.13328 5.89135 7.25998 5.73266 6.31029C5.57396 5.36059 5.72548 4.38504 6.16475 3.52822C6.51322 2.87595 7.00825 2.3134 7.61091 1.88481C8.21359 1.45622 8.90747 1.17328 9.63797 1.05822C10.3685 0.943163 11.1158 0.999133 11.821 1.22173C12.5263 1.44433 13.1703 1.82748 13.7024 2.34106L15.0003 3.60288L16.2995 2.34106C16.8316 1.82748 17.4756 1.44433 18.1809 1.22173C18.8861 0.999133 19.6333 0.943163 20.3638 1.05822C21.0944 1.17328 21.7883 1.45622 22.3909 1.88481C22.9936 2.3134 23.4886 2.87595 23.8371 3.52822C24.2774 4.38574 24.4294 5.3624 24.2705 6.31316C24.1115 7.26392 23.6501 8.13805 22.9548 8.80572L16.3294 15.5205Z" stroke="#DF443D" stroke-linecap="round" stroke-linejoin="round"/>
<path d="M4.73333 29L2.22703 26.037C1.43273 25.0442 1 23.8106 1 22.539V16.103C1 15.608 1.19666 15.1332 1.54674 14.7831C1.8968 14.4331 2.3716 14.2364 2.86667 14.2364C3.36173 14.2364 3.83653 14.4331 4.1866 14.7831C4.53667 15.1332 4.73333 15.608 4.73333 16.103V20.7695" stroke="#3E3E3E" stroke-linecap="round" stroke-linejoin="round"/>
<path d="M10.3332 29V25.2668C10.3337 24.1594 10.0059 23.0768 9.3912 22.1557L7.97006 20.0278C7.84827 19.8261 7.68686 19.6512 7.49556 19.5138C7.30425 19.3762 7.08705 19.2789 6.85706 19.2277C6.62708 19.1766 6.38911 19.1725 6.15754 19.2159C5.92597 19.2593 5.70561 19.3493 5.50979 19.4804C5.15832 19.716 4.90463 20.0715 4.79609 20.4805C4.68755 20.8894 4.73156 21.3239 4.91992 21.7028L6.6024 24.5027" stroke="#3E3E3E" stroke-linecap="round" stroke-linejoin="round"/>
<path d="M25.2666 29L27.7729 26.037C28.5672 25.0442 28.9999 23.8106 28.9999 22.539V16.103C28.9999 15.608 28.8033 15.1332 28.4532 14.7831C28.1031 14.4331 27.6283 14.2364 27.1333 14.2364C26.6382 14.2364 26.1634 14.4331 25.8133 14.7831C25.4633 15.1332 25.2666 15.608 25.2666 16.103V20.7695" stroke="#3E3E3E" stroke-linecap="round" stroke-linejoin="round"/>
<path d="M19.6665 28.9998V25.2666C19.666 24.1593 19.9938 23.0767 20.6085 22.1557L22.0297 20.0252C22.1509 19.823 22.312 19.6475 22.5031 19.5094C22.6941 19.3713 22.9112 19.2734 23.1413 19.2216C23.3713 19.1698 23.6095 19.1653 23.8412 19.2082C24.073 19.2512 24.2938 19.3408 24.49 19.4715C24.8434 19.707 25.0986 20.0634 25.2077 20.4738C25.3168 20.8842 25.2722 21.3204 25.0824 21.7002L23.3998 24.5001" stroke="#3E3E3E" stroke-linecap="round" stroke-linejoin="round"/>
</svg>
