<svg width="10" height="14" viewBox="0 0 10 14" fill="none" xmlns="http://www.w3.org/2000/svg">
<path fill-rule="evenodd" clip-rule="evenodd" d="M5 0C7.75923 0 9.99602 2.19451 9.99602 4.90158C10.0959 7.09328 8.30451 10.0132 5.57811 13.7104C5.44389 13.8923 5.22889 14 5 14C4.77111 14 4.55611 13.8923 4.42189 13.7104C1.69549 10.0062 -0.0959435 7.08628 0.00397692 4.90158C0.00397696 2.19451 2.24077 0 5 0ZM5 12.1209C6.90563 9.47405 8.66851 6.68015 8.56859 4.9646V4.90158C8.56859 2.96796 6.97088 1.40045 5 1.40045C3.02912 1.40045 1.43141 2.96796 1.43141 4.90158V4.94359C1.33149 6.65914 3.09437 9.45304 5 12.1209ZM5 2.8009C3.81747 2.8009 2.85885 3.7414 2.85885 4.90158C2.85885 6.06175 3.81747 7.00225 5 7.00225C6.18253 7.00225 7.14115 6.06175 7.14115 4.90158C7.14115 4.34444 6.91557 3.81013 6.51402 3.41617C6.11248 3.02222 5.56787 2.8009 5 2.8009ZM4.28628 4.90158C4.28628 5.2883 4.60582 5.6018 5 5.6018C5.39417 5.6018 5.71372 5.2883 5.71372 4.90158C5.71372 4.51485 5.39417 4.20135 5 4.20135C4.60582 4.20135 4.28628 4.51485 4.28628 4.90158Z" fill="#123C55"/>
</svg>
