<svg width="10" height="13" viewBox="0 0 10 13" fill="none" xmlns="http://www.w3.org/2000/svg">
<path fill-rule="evenodd" clip-rule="evenodd" d="M1.87524 0H8.12476C9.182 0.0250136 10.0206 0.940461 9.99962 2.04678V11.6464C10.0022 12.1799 9.70654 12.6657 9.24342 12.8888C9.0856 12.9607 8.91556 12.9985 8.74346 13C8.43948 12.9981 8.14728 12.8767 7.92478 12.66L5 9.87425L2.07522 12.66C1.71485 12.9964 1.20147 13.0855 0.756576 12.8888C0.293457 12.6657 -0.00223306 12.1799 0.000383727 11.6464V2.04678C-0.0205545 0.940461 0.817997 0.0250136 1.87524 0ZM5.83119 8.90644L8.74971 11.6922V2.04678C8.76765 1.66379 8.49025 1.33579 8.12476 1.30785H1.87524C1.50975 1.33579 1.23235 1.66379 1.25029 2.04678V11.6464L4.14382 8.90644C4.62142 8.44925 5.35359 8.44925 5.83119 8.90644Z" fill="#123C55"/>
</svg>
