<svg width="13" height="13" viewBox="0 0 13 13" fill="none" xmlns="http://www.w3.org/2000/svg">
<path fill-rule="evenodd" clip-rule="evenodd" d="M6.1815 10.3006C6.14478 10.285 6.1099 10.2654 6.0775 10.2421L1.5405 6.34281C1.36401 6.1919 1.28146 5.95831 1.32393 5.73003C1.36641 5.50176 1.52747 5.31348 1.74643 5.23612C1.9654 5.15877 2.20901 5.20408 2.3855 5.355L5.85 8.33144V0.649878C5.85 0.29096 6.14102 0 6.5 0C6.85898 0 7.15 0.29096 7.15 0.649878V8.33144L10.6275 5.355C10.9003 5.1217 11.3107 5.15371 11.544 5.42648C11.7773 5.69926 11.7453 6.10952 11.4725 6.34281L6.9225 10.2421C6.8901 10.2654 6.85522 10.285 6.8185 10.3006L6.7405 10.3526C6.58607 10.4141 6.41394 10.4141 6.2595 10.3526L6.1815 10.3006ZM13 11.6978V10.3981C13 10.0391 12.709 9.74817 12.35 9.74817C11.991 9.74817 11.7 10.0391 11.7 10.3981V11.6523C11.6422 11.6837 11.5772 11.6993 11.5115 11.6978H1.4885C1.42277 11.6993 1.35779 11.6837 1.3 11.6523V10.3981C1.3 10.0391 1.00899 9.74817 0.65 9.74817C0.291015 9.74817 0 10.0391 0 10.3981V11.6978C0.0589279 12.4643 0.720948 13.0423 1.4885 12.9976H11.5115C12.2791 13.0423 12.9411 12.4643 13 11.6978Z" fill="#123C55"/>
</svg>
