<svg width="18" height="15" viewBox="0 0 18 15" fill="none" xmlns="http://www.w3.org/2000/svg">
<path fill-rule="evenodd" clip-rule="evenodd" d="M8.39311 7.73148C8.39311 8.16615 8.748 8.51852 9.18579 8.51852H16.6463C17.0841 8.51852 17.439 8.16615 17.439 7.73148C17.439 7.29681 17.0841 6.94444 16.6463 6.94444H9.18579C8.748 6.94444 8.39311 7.29681 8.39311 7.73148Z" fill="#123C55"/>
<path fill-rule="evenodd" clip-rule="evenodd" d="M14.2225 11.0658C14.5321 11.3731 15.034 11.3731 15.3435 11.0658L17.4947 8.92994C18.1684 8.26099 18.1684 7.1764 17.4947 6.50744L15.3546 4.38259C15.045 4.07523 14.5431 4.07523 14.2336 4.38259C13.924 4.68994 13.924 5.18827 14.2336 5.49563L16.3737 7.62048C16.4283 7.67472 16.4283 7.76266 16.3737 7.8169L14.2225 9.95274C13.9129 10.2601 13.9129 10.7584 14.2225 11.0658Z" fill="#123C55"/>
<path fill-rule="evenodd" clip-rule="evenodd" d="M11.1908 10.5093C11.1908 12.1201 9.87561 13.4259 8.25322 13.4259H4.52295C2.90057 13.4259 1.58537 12.1201 1.58537 10.5093V4.49074C1.58537 2.87991 2.90057 1.57407 4.52295 1.57407H8.25322C9.87561 1.57407 11.1908 2.87991 11.1908 4.49074V5.58201C11.1908 6.01668 11.5457 6.36905 11.9835 6.36905C12.4213 6.36905 12.7762 6.01668 12.7762 5.58201V4.49074C12.7762 2.01057 10.7512 0 8.25322 0H4.52295C2.02499 0 0 2.01057 0 4.49074V10.5093C0 12.9894 2.02499 15 4.52295 15H8.25322C10.7512 15 12.7762 12.9894 12.7762 10.5093V9.89749C12.7762 9.46282 12.4213 9.11045 11.9835 9.11045C11.5457 9.11045 11.1908 9.46282 11.1908 9.89749V10.5093Z" fill="#123C55"/>
</svg>
