<svg width="14" height="14" viewBox="0 0 14 14" fill="none" xmlns="http://www.w3.org/2000/svg">
<path fill-rule="evenodd" clip-rule="evenodd" d="M13.251 2.50528L12.88 1.40352C12.5824 0.559556 11.7849 -0.00343506 10.892 1.57753e-05H3.10801C2.21509 -0.00343506 1.41764 0.559556 1.12001 1.40352L0.749008 2.50528C0.276165 2.88041 0.00028949 3.45164 8.9311e-06 4.05615V4.52633C-0.0025916 5.49084 0.562911 6.36599 1.44201 6.7579C1.41404 6.82944 1.39979 6.90563 1.40001 6.98246V11.8947C1.40001 13.0574 2.34021 14 3.5 14H10.5C11.6598 14 12.6 13.0574 12.6 11.8947V6.98246C12.6002 6.90563 12.586 6.82944 12.558 6.7579C13.4371 6.36599 14.0026 5.49084 14 4.52633V4.05615C13.9997 3.45164 13.7238 2.88041 13.251 2.50528ZM2.44301 1.84563C2.5431 1.54712 2.8293 1.35202 3.143 1.36844H10.892C11.2057 1.35202 11.4919 1.54712 11.592 1.84563L11.662 2.07019H2.37301L2.44301 1.84563ZM8.4 4.52633V3.4737H5.6V4.52633C5.6 5.10768 6.0701 5.57896 6.65 5.57896H7.35C7.9299 5.57896 8.4 5.10768 8.4 4.52633ZM1.40001 4.52633V4.05615C1.40001 3.73447 1.66013 3.4737 1.98101 3.4737H4.2V4.52633C4.2 5.10768 3.7299 5.57896 3.15 5.57896H2.45001C1.87011 5.57896 1.40001 5.10768 1.40001 4.52633ZM6.3 12.5965H7.7V10.4912C7.7 10.1037 7.3866 9.78948 7 9.78948C6.6134 9.78948 6.3 10.1037 6.3 10.4912V12.5965ZM11.2 11.8947C11.2 12.2823 10.8866 12.5965 10.5 12.5965H9.1V10.4912C9.1 9.32853 8.1598 8.38597 7 8.38597C5.8402 8.38597 4.9 9.32853 4.9 10.4912V12.5965H3.5C3.11341 12.5965 2.80001 12.2823 2.80001 11.8947V6.98246H3.15C3.81041 6.98558 4.4431 6.71664 4.9 6.23861C5.35691 6.71664 5.9896 6.98558 6.65 6.98246H7.35C8.0104 6.98558 8.64309 6.71664 9.1 6.23861C9.5569 6.71664 10.1896 6.98558 10.85 6.98246H11.2V11.8947ZM11.55 5.57896C12.1299 5.57896 12.6 5.10768 12.6 4.52633V4.05615C12.6 3.73447 12.3399 3.4737 12.019 3.4737H9.8V4.52633C9.8 5.10768 10.2701 5.57896 10.85 5.57896H11.55Z" fill="#123C55"/>
</svg>
