<svg width="15" height="17" viewBox="0 0 15 17" fill="none" xmlns="http://www.w3.org/2000/svg">
<path fill-rule="evenodd" clip-rule="evenodd" d="M0.446095 7.29653C0.627183 5.12433 2.48036 3.45178 4.70606 3.45178H10.2939C12.5196 3.45178 14.3728 5.12433 14.5539 7.29653L14.9855 12.4742C15.1888 14.9118 13.2232 17 10.7256 17H4.27442C1.77675 17 -0.188761 14.9118 0.0144543 12.4742L0.446095 7.29653ZM4.70606 4.91878C3.2605 4.91878 2.05689 6.00508 1.93928 7.41589L1.50764 12.5936C1.37565 14.1768 2.65222 15.533 4.27442 15.533H10.7256C12.3478 15.533 13.6243 14.1768 13.4924 12.5936L13.0607 7.41589C12.9431 6.00508 11.7395 4.91878 10.2939 4.91878H4.70606Z" fill="#123C55"/>
<path fill-rule="evenodd" clip-rule="evenodd" d="M4.10713 3.32233C4.10713 1.48746 5.62617 0 7.5 0C9.37383 0 10.8929 1.48746 10.8929 3.32233V5.91117C10.8929 6.31627 10.5575 6.64467 10.1438 6.64467C9.73009 6.64467 9.39472 6.31627 9.39472 5.91117V3.32233C9.39472 2.29766 8.54643 1.46701 7.5 1.46701C6.45357 1.46701 5.60528 2.29766 5.60528 3.32233V5.91117C5.60528 6.31627 5.26991 6.64467 4.8562 6.64467C4.4425 6.64467 4.10713 6.31627 4.10713 5.91117V3.32233Z" fill="#123C55"/>
</svg>
