<svg width="15" height="15" viewBox="0 0 15 15" fill="none" xmlns="http://www.w3.org/2000/svg">
<path fill-rule="evenodd" clip-rule="evenodd" d="M12.0417 14.5832C13.2153 14.5832 14.1667 13.6318 14.1667 12.4582V2.5415C14.1667 1.3679 13.2153 0.416504 12.0417 0.416504H2.125C0.951395 0.416504 0 1.3679 0 2.5415V12.4582C0 13.6318 0.951395 14.5832 2.125 14.5832H12.0417ZM9.91667 6.08317C9.13426 6.08317 8.5 6.71743 8.5 7.49984C8.5 8.28224 9.13426 8.9165 9.91667 8.9165C10.6991 8.9165 11.3333 8.28224 11.3333 7.49984C11.3333 6.71743 10.6991 6.08317 9.91667 6.08317ZM12.75 5.37484H7.79167C7.40047 5.37484 7.08333 5.69197 7.08333 6.08317V8.9165C7.08333 9.30771 7.40047 9.62484 7.79167 9.62484H12.75V5.37484ZM12.0417 1.83317C12.4329 1.83317 12.75 2.1503 12.75 2.5415V3.95817H7.79167C6.61806 3.95817 5.66667 4.90957 5.66667 6.08317V8.9165C5.66667 10.0901 6.61806 11.0415 7.79167 11.0415H12.75V12.4582C12.75 12.8494 12.4329 13.1665 12.0417 13.1665H2.125C1.7338 13.1665 1.41667 12.8494 1.41667 12.4582V2.5415C1.41667 2.1503 1.7338 1.83317 2.125 1.83317H12.0417Z" fill="#123C55"/>
</svg>
