<?xml version="1.0" encoding="UTF-8" standalone="no"?> <svg xmlns="http://www.w3.org/2000/svg" viewBox="0 0 64 64"><g id="Layer_97" data-name="Layer 97"><path d="M21.89,43.26a2,2,0,0,0-2-1.29H14V12a2,2,0,0,0-4,0V42H4.11a2,2,0,0,0-1.47,3.5l8,7.94a2,2,0,0,0,2.82,0l7.93-7.92A2,2,0,0,0,21.89,43.26ZM12,49.17,8.79,46h6.42Z"/><path d="M33.49,50H26.61a2,2,0,0,0,0,4h6.88A2,2,0,0,0,33.49,50Z"/><path d="M40.37,40H26.61a2,2,0,0,0,0,4H40.37A2,2,0,0,0,40.37,40Z"/><path d="M47.89,30H26.61a2,2,0,0,0,0,4H47.89A2,2,0,0,0,47.89,30Z"/><path d="M54.14,20H26.61a2,2,0,0,0,0,4H54.14A2,2,0,0,0,54.14,20Z"/><path d="M60,10H26.61a2,2,0,0,0,0,4H60A2,2,0,0,0,60,10Z"/></g></svg>