<svg width="14" height="14" viewBox="0 0 14 14" fill="none" xmlns="http://www.w3.org/2000/svg">
<path fill-rule="evenodd" clip-rule="evenodd" d="M11.3333 2.66667H10.6667V2C10.6667 0.89543 9.77124 0 8.66667 0H2C0.89543 0 0 0.89543 0 2V6.66667C0 7.77124 0.89543 8.66667 2 8.66667V10C2.00076 10.251 2.14248 10.4804 2.36667 10.5933C2.45867 10.6432 2.56202 10.6685 2.66667 10.6667C2.81091 10.6667 2.95127 10.6199 3.06667 10.5333C3.44438 11.0369 4.03715 11.3333 4.66667 11.3333H7.78L10.2667 13.2C10.3821 13.2865 10.5224 13.3333 10.6667 13.3333C10.7713 13.3352 10.8747 13.3099 10.9667 13.26C11.1909 13.147 11.3326 12.9177 11.3333 12.6667V11.3333C12.4379 11.3333 13.3333 10.4379 13.3333 9.33333V4.66667C13.3333 3.5621 12.4379 2.66667 11.3333 2.66667ZM3.33333 8.66667V8C3.33333 7.63181 3.03486 7.33333 2.66667 7.33333H2C1.63181 7.33333 1.33333 7.03486 1.33333 6.66667V2C1.33333 1.63181 1.63181 1.33333 2 1.33333H8.66667C9.03486 1.33333 9.33333 1.63181 9.33333 2V6.66667C9.33333 7.03486 9.03486 7.33333 8.66667 7.33333H5.33333C5.18909 7.33333 5.04873 7.38012 4.93333 7.46667L3.33333 8.66667ZM11.3333 10C11.7015 10 12 9.70152 12 9.33333V4.66667C12 4.29848 11.7015 4 11.3333 4H10.6667V6.66667C10.6667 7.77124 9.77124 8.66667 8.66667 8.66667H5.55333L4.14667 9.72667C4.26835 9.89335 4.46037 9.99429 4.66667 10H8C8.14425 10 8.2846 10.0468 8.4 10.1333L10 11.3333V10.6667C10 10.2985 10.2985 10 10.6667 10H11.3333Z" fill="#123C55"/>
</svg>
