<svg width="14" height="15" viewBox="0 0 14 15" fill="none" xmlns="http://www.w3.org/2000/svg">
<path fill-rule="evenodd" clip-rule="evenodd" d="M6.91529 7.29801C6.63702 6.99985 6.63702 6.51645 6.91529 6.21829L11.6576 1.13729C11.9358 0.83913 12.387 0.83913 12.6653 1.13728C12.9436 1.43544 12.9436 1.91884 12.6653 2.217L7.92303 7.29801C7.64475 7.59616 7.19357 7.59616 6.91529 7.29801Z" fill="#123C55"/>
<path fill-rule="evenodd" clip-rule="evenodd" d="M8.48618 1.04076C8.48618 0.619108 8.80521 0.27729 9.19876 0.27729L11.9335 0.27729C12.79 0.27729 13.4844 1.02125 13.4844 1.93897V4.854C13.4844 5.27565 13.1654 5.61747 12.7718 5.61747C12.3783 5.61747 12.0593 5.27565 12.0593 4.854V1.93897C12.0593 1.86456 12.003 1.80424 11.9335 1.80424H9.19876C8.80521 1.80424 8.48618 1.46242 8.48618 1.04076Z" fill="#123C55"/>
<path fill-rule="evenodd" clip-rule="evenodd" d="M4.06587 1.52695C2.60744 1.52695 1.42515 2.79369 1.42515 4.35629V10.6437C1.42515 12.2063 2.60744 13.4731 4.06587 13.4731H9.93413C11.3926 13.4731 12.5748 12.2063 12.5748 10.6437V7.43584C12.5748 7.01419 12.8939 6.67237 13.2874 6.67237C13.681 6.67237 14 7.01419 14 7.43584V10.6437C14 13.0496 12.1796 15 9.93413 15H4.06587C1.82035 15 0 13.0496 0 10.6437V4.35629C0 1.95038 1.82035 0 4.06587 0H6.43114C6.82468 0 7.14371 0.341819 7.14371 0.763473C7.14371 1.18513 6.82468 1.52695 6.43114 1.52695H4.06587Z" fill="#123C55"/>
</svg>
