<svg width="1440" height="450" viewBox="0 0 1440 450" fill="none" xmlns="http://www.w3.org/2000/svg">
<path d="M-74 103.233L1739 99.292V342.895H-74V103.233Z" fill="#DF443D"/>
<path d="M1739 381.059C1739 381.059 1692.24 397.977 1649.32 399.158C1605.76 400.338 1568.61 399.158 1515.44 393.256C1443.06 385.387 1303.42 353.518 1229.11 370.83C1154.81 388.141 1151.6 388.928 1113.81 399.944C1071.53 412.535 985.696 437.715 879.363 436.535C765.983 435.354 560.362 371.223 475.807 374.371C466.839 374.764 433.53 377.518 408.548 382.239C384.206 386.961 348.335 397.19 299.652 400.731C279.154 402.305 246.485 405.059 208.692 404.272C199.083 403.879 168.336 402.699 131.824 397.977C95.3118 393.256 61.3619 385.78 30.6148 383.42C-35.3633 379.092 -77 385.387 -77 385.387V342.895H1739V381.059ZM1593.59 387.354C1589.11 383.42 1580.78 385.78 1566.05 385.78C1551.31 385.78 1526.97 381.059 1528.89 381.453C1530.82 381.846 1548.75 387.354 1567.33 388.928C1586.55 390.895 1597.44 391.289 1593.59 387.354ZM1475.73 376.731C1475.73 376.731 1460.35 375.944 1439.86 373.19C1419.36 370.043 1373.88 362.174 1343.13 359.42C1290.6 355.092 1241.92 359.42 1246.41 359.813C1251.53 360.207 1307.9 357.452 1359.15 364.141C1380.28 366.895 1418.72 372.797 1438.58 374.764C1459.71 377.125 1475.73 376.731 1475.73 376.731ZM1109.33 376.338C1120.21 373.584 1024.13 394.83 990.821 400.338C977.369 402.699 951.106 406.633 926.764 408.207C901.782 409.781 869.754 409.781 870.395 410.174C870.395 410.961 907.548 413.322 942.138 410.174C976.729 407.026 975.447 405.846 990.821 403.879C1015.16 400.731 1098.44 379.092 1109.33 376.338ZM1198.36 370.043C1199.64 370.043 1193.24 368.469 1167.62 374.371C1141.99 380.272 1124.7 388.141 1123.42 388.928C1122.14 389.321 1145.84 381.846 1165.69 377.125C1184.91 372.403 1197.72 370.043 1198.36 370.043ZM1735.8 366.502C1735.16 366.895 1723.63 370.829 1705.05 376.338C1686.47 381.846 1660.85 387.354 1662.13 386.961C1663.41 386.961 1684.55 384.6 1709.53 377.125C1734.52 369.649 1736.44 366.108 1735.8 366.502ZM123.497 388.535C124.137 387.748 111.326 387.748 94.6712 383.813C78.0166 379.879 60.0808 377.518 44.7072 375.944C19.0847 372.797 -30.2388 376.338 -27.6765 376.731C-25.7549 377.125 24.8497 375.551 52.394 379.485C66.4864 381.453 67.7675 381.453 88.9062 385.78C110.045 390.108 122.856 389.715 123.497 388.535ZM390.612 379.092C393.174 378.698 413.032 372.797 444.419 368.862C475.807 364.534 501.43 366.895 501.43 365.715C501.43 364.534 495.024 362.174 461.715 364.534C428.405 366.895 388.05 379.485 390.612 379.092ZM381.644 369.256C382.925 369.649 403.423 364.141 418.156 362.567C432.889 361.387 430.327 360.6 430.327 360.207C430.327 359.813 423.281 359.42 413.032 360.993C402.142 362.961 380.363 368.862 381.644 369.256ZM522.568 360.207C523.209 360.993 544.988 363.354 558.44 367.289C571.892 371.223 569.97 369.649 570.611 369.256C571.251 368.862 565.486 366.108 555.237 364.141C544.988 361.78 521.928 359.42 522.568 360.207ZM341.929 386.567C341.289 387.748 343.851 388.535 354.1 385.78C364.349 383.026 370.755 380.666 368.192 381.059C365.63 381.453 362.427 382.633 352.178 384.207C341.289 385.78 342.57 385.387 341.929 386.567ZM143.995 391.682C142.714 391.682 157.447 394.83 165.133 395.223C172.82 395.617 177.945 395.617 177.945 394.436C177.945 393.256 177.304 392.469 167.696 392.862C157.447 393.256 145.276 391.682 143.995 391.682ZM897.939 425.912C897.298 426.305 882.565 424.731 849.897 424.731C817.868 424.731 762.78 415.289 739.72 410.961C716.659 406.633 803.776 426.305 845.413 427.092C887.049 427.879 898.58 425.518 897.939 425.912Z" fill="#DF443D"/>
<path d="M1649.96 413.715C1649.32 413.322 1620.5 414.895 1603.84 413.715C1557.08 410.961 1494.95 401.125 1497.51 402.305C1500.07 403.485 1585.26 414.502 1606.4 415.289C1637.79 416.863 1650.6 413.715 1649.96 413.715Z" fill="#DF443D"/>
<path d="M1379.64 381.453C1378.36 381.059 1350.82 377.518 1318.79 376.731C1286.76 375.944 1237.44 379.092 1240 378.698C1241.92 378.305 1277.79 371.616 1325.2 373.977C1372.6 376.338 1380.92 381.846 1379.64 381.453Z" fill="#DF443D"/>
<path d="M1232.95 395.616C1232.31 395.223 1245.77 391.682 1253.45 391.289C1261.14 390.895 1266.26 391.289 1266.26 392.469C1266.26 393.649 1265.62 394.436 1256.01 394.043C1245.12 393.649 1233.59 396.01 1232.95 395.616Z" fill="#DF443D"/>
<path d="M1210.53 384.6C1210.53 384.207 1182.35 389.321 1170.18 393.256C1158.01 396.797 1130.46 405.453 1131.1 405.453C1131.75 405.846 1158.01 399.158 1171.46 395.223C1184.91 391.289 1210.53 384.994 1210.53 384.6Z" fill="#DF443D"/>
<path d="M912.672 447.945C912.031 447.551 883.206 449.125 866.551 447.945C819.79 445.191 757.655 435.354 760.218 436.535C762.78 437.715 847.975 448.732 869.114 449.518C900.501 451.092 913.313 448.338 912.672 447.945Z" fill="#DF443D"/>
<path d="M191.396 418.83C191.396 418.83 199.083 417.65 209.973 418.436C220.862 419.223 247.126 421.977 262.499 421.19C289.403 419.617 309.901 410.568 307.339 410.961C304.776 410.961 279.794 419.617 252.25 418.436C240.72 418.043 219.581 416.469 209.332 416.863C199.083 417.256 191.396 418.83 191.396 418.83Z" fill="#DF443D"/>
<path d="M406.626 392.469C407.907 392.862 419.437 389.321 434.17 388.141C448.903 387.354 447.622 386.961 447.622 386.174C447.622 385.78 436.092 384.6 425.843 386.174C415.594 388.141 405.345 392.075 406.626 392.469Z" fill="#DF443D"/>
<path d="M22.928 394.83C22.928 394.436 50.4723 394.83 65.8459 396.797C81.2194 398.764 97.8741 404.272 97.8741 404.666C97.8741 405.059 80.5788 401.518 65.2053 399.158C50.4723 396.797 23.5686 395.223 22.928 394.83Z" fill="#DF443D"/>
<path d="M-74.0001 65.0003C-74.0001 65.0003 -27.2389 48.0821 15.6789 46.9018C59.2373 45.7214 96.39 46.9018 149.557 52.8034C221.941 60.6723 361.584 92.5414 435.889 75.2298C510.195 57.9182 513.398 57.1313 551.191 46.1149C593.468 33.5246 679.304 8.34413 785.637 9.52446C899.017 10.7048 1104.64 74.8363 1189.19 71.6888C1198.16 71.2953 1231.47 68.5412 1256.45 63.8199C1280.79 59.0985 1316.67 48.8689 1365.35 45.3279C1385.85 43.7541 1418.51 41 1456.31 41.7869C1465.92 42.1804 1496.66 43.3607 1533.18 48.082C1569.69 52.8034 1603.64 60.2788 1634.39 62.6395C1700.36 66.9674 1739 60.6723 1739 60.6723V99.292L-74.0001 103.164L-74.0001 65.0003ZM71.4081 58.7051C75.8921 62.6396 84.2193 60.2789 98.9523 60.2789C113.685 60.2789 138.027 65.0002 136.105 64.6068C134.183 64.2134 116.247 58.7051 97.6711 57.1313C78.4542 55.1641 67.5647 54.7707 71.4081 58.7051ZM189.272 69.3281C189.272 69.3281 204.645 70.115 225.143 72.8691C245.642 76.0167 291.122 83.8856 321.869 86.6397C374.395 90.9676 423.078 86.6397 418.594 86.2463C413.469 85.8528 357.1 88.6069 305.855 81.9184C284.716 79.1643 246.282 73.2626 226.425 71.2954C205.286 68.9347 189.272 69.3281 189.272 69.3281ZM555.675 69.7216C544.785 72.4757 640.87 51.2296 674.179 45.7214C687.631 43.3607 713.894 39.4263 738.236 37.8525C763.218 36.2787 795.246 36.2787 794.605 35.8853C794.605 35.0984 757.452 32.7377 722.862 35.8853C688.272 39.0328 689.553 40.2132 674.179 42.1804C649.838 45.328 566.564 66.9675 555.675 69.7216ZM466.636 76.0167C465.355 76.0167 471.761 77.5905 497.383 71.6888C523.006 65.7871 540.301 57.9182 541.582 57.1313C542.863 56.7379 519.163 64.2133 499.305 68.9347C480.088 73.656 467.277 76.0167 466.636 76.0167ZM-70.7972 79.5577C-70.1567 79.1643 -58.6266 75.2298 -40.0502 69.7216C-21.4739 64.2134 4.14879 58.7051 2.86766 59.0986C1.58653 59.0986 -19.552 61.4593 -44.5341 68.9347C-69.5161 76.4102 -71.4378 79.9512 -70.7972 79.5577ZM1541.5 57.5247C1540.86 58.3116 1553.67 58.3116 1570.33 62.2461C1586.98 66.1805 1604.92 68.5412 1620.29 70.115C1645.92 73.2625 1695.24 69.7215 1692.68 69.3281C1690.75 68.9346 1640.15 70.5084 1612.61 66.5739C1598.51 64.6067 1597.23 64.6067 1576.09 60.2788C1554.96 55.9509 1542.14 56.3444 1541.5 57.5247ZM1274.39 66.9674C1271.83 67.3609 1251.97 73.2625 1220.58 77.197C1189.19 81.5249 1163.57 79.1642 1163.57 80.3446C1163.57 81.5249 1169.98 83.8856 1203.29 81.5249C1236.59 79.1642 1276.95 66.574 1274.39 66.9674ZM1283.36 76.8035C1282.07 76.4101 1261.58 81.9183 1246.84 83.4921C1232.11 84.6724 1234.67 85.4593 1234.67 85.8528C1234.67 86.2462 1241.72 86.6397 1251.97 85.0659C1262.86 83.0987 1284.64 77.197 1283.36 76.8035ZM1142.43 85.8528C1141.79 85.0659 1120.01 82.7052 1106.56 78.7708C1093.11 74.8363 1095.03 76.4101 1094.39 76.8035C1093.75 77.197 1099.51 79.9511 1109.76 81.9183C1120.01 84.279 1143.07 86.6397 1142.43 85.8528ZM1323.07 59.492C1323.71 58.3116 1321.15 57.5247 1310.9 60.2788C1300.65 63.033 1294.25 65.3936 1296.81 65.0002C1299.37 64.6067 1302.57 63.4264 1312.82 61.8526C1323.71 60.2788 1322.43 60.6723 1323.07 59.492ZM1521.01 54.3772C1522.29 54.3772 1507.55 51.2296 1499.87 50.8361C1492.18 50.4427 1487.06 50.4427 1487.06 51.623C1487.06 52.8034 1487.7 53.5903 1497.3 53.1968C1507.55 52.8034 1519.72 54.3772 1521.01 54.3772ZM767.061 20.1475C767.702 19.754 782.435 21.3278 815.103 21.3278C847.132 21.3278 902.22 30.7705 925.28 35.0984C948.341 39.4263 861.224 19.754 819.587 18.9671C777.951 18.1803 766.42 20.5409 767.061 20.1475Z" fill="#DF443D"/>
<path d="M15.0384 36.2851C15.679 36.6785 44.5045 35.1047 61.1591 36.2851C107.92 39.0392 170.055 48.8753 167.493 47.695C164.93 46.5146 79.7355 35.4982 58.5969 34.7113C27.2093 33.1375 14.3979 36.2851 15.0384 36.2851Z" fill="#DF443D"/>
<path d="M285.357 68.5477C286.638 68.9411 314.182 72.4821 346.21 73.269C378.238 74.0559 427.562 70.9083 425 71.3018C423.078 71.6952 387.206 78.3838 339.805 76.0231C292.403 73.6625 284.076 68.1542 285.357 68.5477Z" fill="#DF443D"/>
<path d="M432.046 54.3836C432.687 54.777 419.235 58.318 411.548 58.7115C403.861 59.1049 398.737 58.7115 398.737 57.5312C398.737 56.3508 399.377 55.5639 408.986 55.9574C419.875 56.3508 431.405 53.9902 432.046 54.3836Z" fill="#DF443D"/>
<path d="M454.466 65.4001C454.466 65.7936 482.65 60.6788 494.821 56.7443C506.992 53.2033 534.536 44.5475 533.896 44.5475C533.255 44.1541 506.992 50.8427 493.54 54.7771C480.088 58.7116 454.466 65.0067 454.466 65.4001Z" fill="#DF443D"/>
<path d="M752.328 2.0553C752.969 2.44874 781.794 0.874961 798.449 2.0553C845.21 4.80941 907.345 14.6456 904.782 13.4652C902.22 12.2849 817.025 1.26841 795.886 0.481516C764.499 -1.09226 751.687 1.66185 752.328 2.0553Z" fill="#DF443D"/>
<path d="M1473.6 31.1702C1473.6 31.1702 1465.92 32.3506 1455.03 31.5637C1444.14 30.7768 1417.87 28.0227 1402.5 28.8096C1375.6 30.3833 1355.1 39.4326 1357.66 39.0391C1360.22 39.0391 1385.21 30.3833 1412.75 31.5637C1424.28 31.9571 1445.42 33.5309 1455.67 33.1375C1465.92 32.744 1473.6 31.1702 1473.6 31.1702Z" fill="#DF443D"/>
<path d="M1258.37 57.5311C1257.09 57.1377 1245.56 60.6787 1230.83 61.859C1216.1 62.6459 1217.38 63.0394 1217.38 63.8263C1217.38 64.2197 1228.91 65.4 1239.16 63.8263C1249.41 61.859 1259.65 57.9246 1258.37 57.5311Z" fill="#DF443D"/>
<path d="M1642.07 55.1704C1642.07 55.5638 1614.53 55.1704 1599.15 53.2031C1583.78 51.2359 1567.13 45.7277 1567.13 45.3342C1567.13 44.9408 1584.42 48.4818 1599.79 50.8425C1614.53 53.2031 1641.43 54.7769 1642.07 55.1704Z" fill="#DF443D"/>
</svg>
